PathFileType	4	(X/Y/Z)	/home/alexbeat/data/kuopio-gait-dataset/01/mocap/calib_static_markers.trc
DataRate	CameraRate	NumFrames	NumMarkers	Units	OrigDataRate	OrigDataStartFrame	OrigNumFrames
100.000000	100.000000	4	70	mm	100.000000	79	211
Frame#	Time	Pelvis1			Pelvis2			Pelvis3			Pelvis4			Torso1			Torso2			Torso3			Torso4			RFemur1			RFemur2			RFemur3			RFemur4			LFemur1			LFemur2			LFemur3			LFemur4			RTibia1			RTibia2			RTibia3			RTibia4			LTibia1			LTibia2			LTibia3			LTibia4			LFoot1			LFoot2			LFoot3			RFoot1			RFoot2			RFoot3			*30			*31			*32			*33			*34			*35			*36			*37			*38			Pelvis_RFemur_score			Pelvis_LFemur_score			RFemur_RTibia_score			RFemur_RTibia_sara			LFemur_LTibia_score			LFemur_LTibia_sara			RKnee			LKnee			RTibia_RFoot_score			LTibia_LFoot_score			USERMO0			USERMO1			USERMO2			USERMO3			USERMO4			USERMO5			USERMO6			USERMO7			USERMO8			USERMO9			USERMO10			USERMO11			USERMO12			USERMO13			USERMO14			USERMO15			USERMO16			USERMO17			USERMO18			USERMO19			USERMO20			
		X1	Y1	Z1	X2	Y2	Z2	X3	Y3	Z3	X4	Y4	Z4	X5	Y5	Z5	X6	Y6	Z6	X7	Y7	Z7	X8	Y8	Z8	X9	Y9	Z9	X10	Y10	Z10	X11	Y11	Z11	X12	Y12	Z12	X13	Y13	Z13	X14	Y14	Z14	X15	Y15	Z15	X16	Y16	Z16	X17	Y17	Z17	X18	Y18	Z18	X19	Y19	Z19	X20	Y20	Z20	X21	Y21	Z21	X22	Y22	Z22	X23	Y23	Z23	X24	Y24	Z24	X25	Y25	Z25	X26	Y26	Z26	X27	Y27	Z27	X28	Y28	Z28	X29	Y29	Z29	X30	Y30	Z30	X31	Y31	Z31	X32	Y32	Z32	X33	Y33	Z33	X34	Y34	Z34	X35	Y35	Z35	X36	Y36	Z36	X37	Y37	Z37	X38	Y38	Z38	X39	Y39	Z39	X40	Y40	Z40	X41	Y41	Z41	X42	Y42	Z42	X43	Y43	Z43	X44	Y44	Z44	X45	Y45	Z45	X46	Y46	Z46	X47	Y47	Z47	X48	Y48	Z48	X49	Y49	Z49	X50	Y50	Z50	X51	Y51	Z51	X52	Y52	Z52	X53	Y53	Z53	X54	Y54	Z54	X55	Y55	Z55	X56	Y56	Z56	X57	Y57	Z57	X58	Y58	Z58	X59	Y59	Z59	X60	Y60	Z60	X61	Y61	Z61	X62	Y62	Z62	X63	Y63	Z63	X64	Y64	Z64	X65	Y65	Z65	X66	Y66	Z66	X67	Y67	Z67	X68	Y68	Z68	X69	Y69	Z69	X70	Y70	Z70	

80	0.79	306.395751953125	1027.446044921875	344.8495178222657	225.7548217773438	1030.270263671875	347.4854431152344	227.6547393798828	916.1704711914062	315.5924072265626	297.4864196777344	916.926025390625	314.0018310546876	262.2738037109375	1421.9677734375	501.3718872070313	91.33094787597656	1439.956176757812	446.8755187988282	435.7437133789062	1464.586059570312	440.8406372070313	253.8536834716797	1491.114501953125	369.0605773925782	90.99935150146484	647.3875732421875	398.2142944335939	101.2454605102539	545.1748046875	394.2551879882812	89.67420959472656	592.3089599609375	422.6593322753907	84.96847534179688	591.52197265625	459.8467712402344	434.1871337890625	668.8110961914062	421.7601013183594	433.4227294921875	632.22802734375	483.2249145507812	423.2454833984375	563.1519775390625	422.7752685546876	434.3582763671875	634.1682739257812	441.2041015625001	92.98562622070312	363.5994567871094	377.3430480957031	96.99263000488281	419.1527099609375	396.5361022949219	92.05193328857422	317.5411071777344	391.7491149902344	109.4737777709961	366.5208435058594	338.9136047363281	426.2816162109375	372.5492248535156	363.5602416992188	431.949462890625	350.452880859375	405.1817321777344	423.9219055175781	285.2721557617188	412.8689575195312	424.6021728515625	394.6548156738281	430.1858825683594	335.2501831054688	28.17078399658201	320.4344482421875	377.7763977050781	23.29128074645993	555.3246459960938	421.9295349121094	23.19826507568356	505.9699401855469	179.6271514892578	26.48996162414549	331.4988098144531	118.1985015869141	22.26542282104488	561.9956665039062	76.23662567138672	21.01316452026364	505.9724731445312	1498.180541992188	615.0714721679689	-1841.720092773438	1584.2783203125	704.5220947265626	-1909.341552734375	1627.211303710938	662.8286743164064	-1802.658813476562	1628.14306640625	658.2536621093751	-1821.152465820312	nan	nan	nan	nan	nan	nan	nan	nan	nan	313.3796691894531	1629.531616210938	576.4770507812501	nan	nan	nan	139.9344329833984	903.8955078125	453.4021606445312	375.492919921875	892.1680908203125	457.3117675781251	145.1284332275391	461.2439575195312	417.3587036132812	243.8914031982422	467.0468139648438	431.9258422851562	364.1566162109375	458.4365539550781	433.1923828125	264.2766723632812	461.2978515625	437.1687927246094	145.1280059814453	461.2439880371094	417.3590087890625	364.1570129394531	458.43701171875	433.1919860839844	223.0001983642578	8.865821838378885	356.8014526367188	373.1544799804688	18.63206863403318	337.5411987304688	-0.8916500806808472	-0.7368395924568175	-1.481999635696411	0.4303707480430603	0.6214098334312439	0.442604035139084	0.1000000014901161	0.1000000014901161	-0.1000000014901161	-0.0004413028073031455	-1.385738492012024	-0.02932467125356205	0.378318727016449	0.02488677762448785	0.4605763852596283	0.1000000014901161	0.1000000014901161	-0.1000000014901161	-1.074111938476562	-0.6339708566665648	-1.398755311965942	0.4274189472198486	0.3360793888568878	0.3938641250133514	0.1000000014901161	0.1000000014901161	-0.1000000014901161	-0.07689467817544937	-1.898220539093018	-2.507195472717285	0.2532476186752319	0.991402804851532	0.3359355628490449	0.1000000014901161	0.1000000014901161	-0.1000000014901161	2.463170766830444	-2.238539695739746	0.2029943913221358	0.0940486267209053	0.594944953918457	0.4050795137882234	0.1000000014901161	0.1000000014901161	-0.1000000014901161	-1.882103800773621	-0.02823733724653706	-2.469538688659668	0.1246874332427979	0.02325618453323838	0.4664890170097351	0.1000000014901161	0.1000000014901161	-0.1000000014901161	2.463045120239258	2.329076528549194	0.3350522220134737	0.09403874725103378	0.3667246103286743	0.3885249197483063	0.1000000014901161	0.1000000014901161	-0.1000000014901161	
81	0.8	306.4080200195312	1027.433837890625	344.8683471679689	225.7809600830078	1030.262573242188	347.4864807128907	227.6613159179688	916.1596069335938	315.5932006835939	297.496826171875	916.9176025390625	314.0057373046876	262.2620239257812	1421.953979492188	501.4172973632813	91.3365478515625	1439.936889648438	446.8920898437501	435.7521362304688	1464.597534179688	440.867889404297	253.8713226318359	1491.111328125	369.1016845703126	90.98956298828125	647.375732421875	398.2123718261719	101.2585983276367	545.1587524414062	394.2521972656251	89.623779296875	592.3275146484375	422.6554260253907	84.94857025146484	591.5244140625	459.8576660156251	434.1863098144531	668.7976684570312	421.7707214355469	433.4044189453125	632.2271118164062	483.2157287597657	423.2555847167969	563.1410522460938	422.7940063476562	434.3618774414062	634.1376953125	441.2056274414062	92.99515533447266	363.576416015625	377.3423461914062	97.01136016845703	419.1334838867188	396.532958984375	92.05786895751953	317.5239562988281	391.7593078613281	109.4704666137695	366.5050964355469	338.9161071777344	426.2662353515625	372.5485229492188	363.577880859375	431.9443664550781	350.4415283203125	405.1886291503906	423.9165344238281	285.2510375976562	412.8715209960938	424.5943603515625	394.6444702148438	430.2076416015625	335.2307739257812	28.17961502075193	320.412841796875	377.7636413574219	23.25930595397945	555.3192138671875	421.9275207519531	23.18953323364255	505.965576171875	179.6422882080078	26.48696327209471	331.4906005859375	118.1878662109375	22.24990653991695	561.998046875	76.21572113037109	21.00111579895017	505.9735717773438	1498.11181640625	614.6373901367189	-1841.7900390625	1584.301025390625	704.5046997070314	-1909.328002929688	1627.248901367188	662.8285522460939	-1802.661499023438	1628.135131835938	658.2492065429689	-1821.172119140625	nan	nan	nan	nan	nan	nan	nan	nan	nan	313.1803894042969	1629.553100585938	576.6328125000001	nan	nan	nan	139.8905334472656	903.8973999023438	453.3905944824219	375.4740295410156	892.14599609375	457.2893066406251	145.1447296142578	461.2369689941406	417.36572265625	243.9068908691406	467.0444641113281	431.9366455078126	364.16015625	458.4163818359375	433.2192687988281	264.2796325683594	461.2703247070312	437.1863403320312	145.1450042724609	461.2369995117188	417.3659973144531	364.1600036621094	458.4159851074219	433.218994140625	222.9860534667969	8.846766471862772	356.8009948730469	373.1466979980469	18.63872909545896	337.5145874023438	-0.8915095329284668	-0.7372535467147826	-1.482067346572876	0.4303695261478424	0.6213958263397217	0.4426096975803376	0.1000000014901161	0.1000000014901161	-0.1000000014901161	-5.918951137573458e-05	-1.38572096824646	-0.02924348413944252	0.3783073425292969	0.02487615309655663	0.4605658948421478	0.1000000014901161	0.1000000014901161	-0.1000000014901161	-1.074040532112122	-0.6337453722953795	-1.398662090301514	0.427409827709198	0.3360702395439148	0.393873542547226	0.1000000014901161	0.1000000014901161	-0.1000000014901161	-0.07683616876602173	-1.898232221603394	-2.50737452507019	0.2532625794410706	0.9913938045501709	0.3359414637088777	0.1000000014901161	0.1000000014901161	-0.1000000014901161	2.463489055633545	-2.238409996032715	0.2035091668367384	0.09403651207685471	0.5949423909187317	0.4050807654857635	0.1000000014901161	0.1000000014901161	-0.1000000014901161	-1.881970286369324	-0.02814882062375531	-2.469618320465088	0.1246819645166397	0.02324599586427209	0.4664874076843262	0.1000000014901161	0.1000000014901161	-0.1000000014901161	2.463325262069702	2.329018354415894	0.3346919715404512	0.09404973685741425	0.3667069375514984	0.3885281682014465	0.1000000014901161	0.1000000014901161	-0.1000000014901161	
82	0.8100000000000001	306.4092407226562	1027.435913085938	344.8605957031251	225.7868804931641	1030.251342773438	347.4984436035157	227.6698455810547	916.14990234375	315.6098022460939	297.5006103515625	916.9044799804688	314.0422058105469	262.2836608886719	1421.976806640625	501.4544677734376	91.31467437744141	1439.940551757812	446.9113769531251	435.7640686035156	1464.610717773438	440.9226989746095	253.8781890869141	1491.107299804688	369.1345520019532	91.0050048828125	647.3670654296875	398.2216186523439	101.2636871337891	545.162353515625	394.2616271972657	89.61407470703125	592.3363037109375	422.6625976562501	84.96413421630859	591.5161743164062	459.8694763183594	434.1763000488281	668.7898559570312	421.7730712890626	433.4077453613281	632.2086791992188	483.2400817871094	423.2510375976562	563.1453247070312	422.7948608398439	434.3492126464844	634.1328125	441.1949462890626	92.99465179443359	363.5946655273438	377.346923828125	97.02885437011719	419.1231994628906	396.5255432128906	92.05043029785156	317.5333251953125	391.7341003417969	109.4871597290039	366.499755859375	338.91845703125	426.2762756347656	372.5509643554688	363.5734252929688	431.9328918457031	350.435302734375	405.185546875	423.9189453125	285.2533264160156	412.8616638183594	424.6149597167969	394.6342468261719	430.2067260742188	335.2507934570312	28.15703773498533	320.4228515625	377.7605285644531	23.26302528381344	555.3196411132812	421.9304809570312	23.18117523193356	505.9576721191406	179.6376495361328	26.48325729370115	331.5057678222656	118.1799697875977	22.24986267089841	561.9900512695312	76.22896575927734	21.0040473937988	505.9797058105469	1498.175537109375	614.5691528320314	-1841.796508789062	1584.310791015625	704.5098876953126	-1909.325439453125	1627.263916015625	662.8276977539064	-1802.643432617188	1628.089599609375	658.3059082031251	-1821.267822265625	-3557.28173828125	994.5782470703125	673.3635864257814	-3552.61962890625	971.5360717773438	669.3966674804689	nan	nan	nan	312.9271545410156	1629.64892578125	576.7688598632814	nan	nan	nan	139.9145050048828	903.900634765625	453.4147338867189	375.4723815917969	892.1524047851562	457.3267211914062	145.1540374755859	461.2261657714844	417.3755493164062	243.9157562255859	467.0133666992188	431.9575805664062	364.1723022460938	458.4140319824219	433.2240295410156	264.2925109863281	461.2726745605469	437.2056884765625	145.1540069580078	461.2260131835938	417.3760070800781	364.1719970703125	458.4140014648438	433.2239990234375	222.9393005371094	8.8283529281616	356.7979736328125	373.1278686523438	18.63245582580564	337.49853515625	-0.891538679599762	-0.7370283603668212	-1.481942176818848	0.430363804101944	0.6213890910148621	0.44261372089386	0.1000000014901161	0.1000000014901161	-0.1000000014901161	-0.0002577450359240174	-1.385784029960632	-0.02925755083560952	0.3783139586448669	0.02486708015203473	0.4605667293071747	0.1000000014901161	0.1000000014901161	-0.1000000014901161	-1.074083209037781	-0.6335425972938536	-1.398760557174683	0.4274122416973114	0.3360680639743805	0.3938674926757812	0.1000000014901161	0.1000000014901161	-0.1000000014901161	-0.07683011144399643	-1.898471117019653	-2.507130146026611	0.2532667517662048	0.9913864135742188	0.3359521329402925	0.1000000014901161	0.1000000014901161	-0.1000000014901161	2.463371753692627	-2.238513469696045	0.2034224718809127	0.09404242038726807	0.5949414968490601	0.4050900638103486	0.1000000014901161	0.1000000014901161	-0.1000000014901161	-1.881991863250732	-0.02809892594814286	-2.469658136367798	0.1246822029352188	0.02324572205543515	0.4664918780326843	0.1000000014901161	0.1000000014901161	-0.1000000014901161	2.463481903076172	2.328575134277344	0.3352035880088808	0.09405293315649033	0.3667097687721252	0.3885206878185272	0.1000000014901161	0.1000000014901161	-0.1000000014901161	
83	0.8200000000000001	306.4228820800781	1027.44091796875	344.8690490722657	225.7767486572266	1030.266967773438	347.4874267578126	227.6678161621094	916.1754760742188	315.5985107421876	297.5077819824219	916.8909912109375	314.0830993652344	262.2969055175781	1422.012573242188	501.5132141113282	91.32752227783203	1439.962890625	446.9515991210939	435.7582397460938	1464.627075195312	440.9661560058595	253.8789367675781	1491.131469726562	369.1590270996095	90.99837493896484	647.3956909179688	398.2098999023439	101.2579574584961	545.1737060546875	394.2671508789062	89.65359497070312	592.3486938476562	422.6576538085939	84.96372985839844	591.5475463867188	459.8506469726562	434.1846008300781	668.8035888671875	421.7752075195312	433.3960266113281	632.2153930664062	483.2370605468751	423.2521667480469	563.1546020507812	422.8161926269532	434.3723754882812	634.13818359375	441.2264404296876	92.9990234375	363.6030883789062	377.3499450683594	97.01834869384766	419.1443176269531	396.5320739746094	91.99112701416016	317.5799560546875	391.7846069335938	109.4987030029297	366.5258178710938	338.916259765625	426.2666320800781	372.5393981933594	363.5827331542969	431.9485778808594	350.4360656738281	405.2039489746094	423.9187927246094	285.2566833496094	412.8901062011719	424.6019897460938	394.6535034179688	430.2262878417969	335.2606811523438	28.19078254699705	320.4140625	377.775390625	23.27975845336911	555.3141479492188	421.9281311035156	23.19584083557126	505.9571533203125	179.6224365234375	26.49422264099119	331.4880065917969	118.1925735473633	22.24821281433102	561.9954223632812	76.24524688720703	21.02462768554685	505.9578552246094	1498.1552734375	615.0206298828126	-1841.73046875	1584.324340820312	704.5081787109376	-1909.339477539062	1627.440795898438	662.8795166015626	-1802.57080078125	1628.136352539062	658.3409423828126	-1821.143920898438	nan	nan	nan	nan	nan	nan	nan	nan	nan	313.0918273925781	1629.659301757812	576.7573852539064	nan	nan	nan	139.881591796875	903.9395751953125	453.3598632812501	375.4490966796875	892.1642456054688	457.3471679687501	145.1595611572266	461.2451477050781	417.3883666992188	243.9185791015625	467.0150756835938	431.9953918457032	364.1611328125	458.4222106933594	433.2298583984375	264.2807922363281	461.2816162109375	437.1972045898438	145.1600036621094	461.2449951171875	417.3880004882812	364.1610107421875	458.4219970703125	433.2300109863281	222.8545074462891	8.805444717407205	356.8868103027344	373.1488342285156	18.63869094848631	337.5392456054688	-0.8914760947227478	-0.737299621105194	-1.482165694236755	0.4303685426712036	0.6213979721069336	0.4426268339157104	0.1000000014901161	0.1000000014901161	-0.1000000014901161	-0.0002915748045779765	-1.385794878005981	-0.02938579767942437	0.3783214390277863	0.02488879486918446	0.4605618119239807	0.1000000014901161	0.1000000014901161	-0.1000000014901161	-1.074203610420227	-0.6337329149246215	-1.398618578910828	0.4274119436740875	0.3360692858695984	0.3938893377780914	0.1000000014901161	0.1000000014901161	-0.1000000014901161	-0.07639447599649429	-1.898932456970215	-2.507360219955444	0.2532697021961212	0.991397500038147	0.335950493812561	0.1000000014901161	0.1000000014901161	-0.1000000014901161	2.463255643844604	-2.23834490776062	0.2034702897071837	0.09404768049716949	0.59496009349823	0.4050821959972383	0.1000000014901161	0.1000000014901161	-0.1000000014901161	-1.882243633270264	-0.02761672995984539	-2.469687938690186	0.1246867552399635	0.02325568906962869	0.4664804637432098	0.1000000014901161	0.1000000014901161	-0.1000000014901161	2.463341474533081	2.327627658843994	0.3356397747993471	0.09403156489133835	0.3667409121990204	0.3885326981544495	0.1000000014901161	0.1000000014901161	-0.1000000014901161	
